<?xml version="1.0" encoding="UTF-8"?>
<!DOCTYPE svg PUBLIC "-//W3C//DTD SVG 1.1//EN" "http://www.w3.org/Graphics/SVG/1.1/DTD/svg11.dtd">
<svg xmlns="http://www.w3.org/2000/svg" version="1.1" width="4892px" height="958px" style="shape-rendering:geometricPrecision; text-rendering:geometricPrecision; image-rendering:optimizeQuality; fill-rule:evenodd; clip-rule:evenodd" xmlns:xlink="http://www.w3.org/1999/xlink">
<g><path style="opacity:0.999" fill="#e41b24" d="M -0.5,-0.5 C 4.83333,-0.5 10.1667,-0.5 15.5,-0.5C 67.8387,0.734474 118.505,10.9011 167.5,30C 254.79,67.6399 307.957,133.14 327,226.5C 330.894,246.654 333.228,266.987 334,287.5C 334.333,429.833 334.667,572.167 335,714.5C 335.453,738.3 337.453,761.966 341,785.5C 343.759,805.112 350.093,823.446 360,840.5C 364.687,846.687 370.187,852.02 376.5,856.5C 360.379,880.071 339.046,897.237 312.5,908C 275.586,923.798 237.586,927.132 198.5,918C 116.621,897.788 59.7875,848.621 28,770.5C 11.5065,726.86 2.00653,681.86 -0.5,635.5C -0.5,423.5 -0.5,211.5 -0.5,-0.5 Z"/></g>
<g><path style="opacity:0.998" fill="#e41b24" d="M 381.5,957.5 C 369.833,957.5 358.167,957.5 346.5,957.5C 331.971,956.574 317.304,955.408 302.5,954C 293.962,953.394 285.629,952.061 277.5,950C 320.171,940.093 356.338,919.259 386,887.5C 407.981,860.945 422.314,830.611 429,796.5C 431.933,782.634 433.933,768.634 435,754.5C 436.265,679.511 436.931,604.511 437,529.5C 441.656,404.25 502.823,321.083 620.5,280C 669.559,263.712 719.893,253.879 771.5,250.5C 771.971,377.179 771.471,503.846 770,630.5C 759.771,753.551 700.938,844.717 593.5,904C 543.065,930.004 490.065,946.171 434.5,952.5C 416.768,954.893 399.102,956.56 381.5,957.5 Z"/></g>
<g><path style="opacity:0.998" fill="#3d3c3c" d="M 1169.5,318.5 C 1214.5,318.5 1259.5,318.5 1304.5,318.5C 1304.33,416.501 1304.5,514.501 1305,612.5C 1309.76,678.926 1345.26,708.759 1411.5,702C 1445.88,695.617 1467.38,675.451 1476,641.5C 1477.39,635.564 1478.39,629.564 1479,623.5C 1479.5,521.834 1479.67,420.167 1479.5,318.5C 1524.5,318.5 1569.5,318.5 1614.5,318.5C 1614.67,420.501 1614.5,522.501 1614,624.5C 1606.42,745.743 1542.26,812.243 1421.5,824C 1375.31,828.481 1330.31,823.148 1286.5,808C 1226.45,782.588 1189.62,737.755 1176,673.5C 1172.97,659.31 1170.97,644.977 1170,630.5C 1169.5,526.501 1169.33,422.501 1169.5,318.5 Z"/></g>
<g><path style="opacity:0.989" fill="#3c3d3c" d="M 2119.5,318.5 C 2162.83,318.5 2206.17,318.5 2249.5,318.5C 2249.5,347.167 2249.5,375.833 2249.5,404.5C 2206.17,404.5 2162.83,404.5 2119.5,404.5C 2119.5,375.833 2119.5,347.167 2119.5,318.5 Z"/></g>
<g><path style="opacity:0.996" fill="#3d3c3c" d="M 3198.5,318.5 C 3278.85,318.041 3359.18,318.541 3439.5,320C 3476.55,323.228 3509.55,336.228 3538.5,359C 3569.99,390.826 3581.83,428.993 3574,473.5C 3569.25,499.845 3557.08,522.012 3537.5,540C 3529.11,546.72 3520.45,553.053 3511.5,559C 3593.26,591.033 3620.09,648.867 3592,732.5C 3579.66,758.504 3560.83,778.337 3535.5,792C 3501.83,808.668 3466.16,817.001 3428.5,817C 3351.83,817.5 3275.17,817.667 3198.5,817.5C 3198.5,651.167 3198.5,484.833 3198.5,318.5 Z M 3265.5,381.5 C 3316.17,381.333 3366.83,381.5 3417.5,382C 3437.94,382.82 3457.27,387.82 3475.5,397C 3501.4,414.307 3511.56,438.473 3506,469.5C 3501.53,493.625 3488.36,511.125 3466.5,522C 3451.52,528.661 3435.86,532.661 3419.5,534C 3368.17,534.5 3316.83,534.667 3265.5,534.5C 3265.5,483.5 3265.5,432.5 3265.5,381.5 Z M 3265.5,596.5 C 3316.83,596.333 3368.17,596.5 3419.5,597C 3448.29,596.623 3475.62,602.623 3501.5,615C 3522.61,627.319 3533.61,645.819 3534.5,670.5C 3533.5,710.343 3513.83,735.843 3475.5,747C 3460.47,751.283 3445.14,753.616 3429.5,754C 3374.83,754.5 3320.17,754.667 3265.5,754.5C 3265.5,701.833 3265.5,649.167 3265.5,596.5 Z"/></g>
<g><path style="opacity:0.995" fill="#3d3c3c" d="M 4417.5,318.5 C 4439.83,318.5 4462.17,318.5 4484.5,318.5C 4484.33,424.167 4484.5,529.834 4485,635.5C 4546.2,572.637 4607.03,509.47 4667.5,446C 4696.17,445.333 4724.83,445.333 4753.5,446C 4700.99,499.681 4648.65,553.515 4596.5,607.5C 4649.38,677.423 4702.38,747.256 4755.5,817C 4728.5,817.667 4701.5,817.667 4674.5,817C 4633,762.833 4591.5,708.667 4550,654.5C 4528.33,676.167 4506.67,697.833 4485,719.5C 4484.5,752.165 4484.33,784.832 4484.5,817.5C 4462.17,817.5 4439.83,817.5 4417.5,817.5C 4417.5,651.167 4417.5,484.833 4417.5,318.5 Z"/></g>
<g><path style="opacity:0.998" fill="#3d3c3c" d="M 4201.5,437.5 C 4241.93,435.096 4277.93,446.263 4309.5,471C 4339.27,500.062 4354.77,535.562 4356,577.5C 4356.5,657.499 4356.67,737.499 4356.5,817.5C 4334.17,817.5 4311.83,817.5 4289.5,817.5C 4289.67,743.499 4289.5,669.499 4289,595.5C 4284.78,527.979 4248.94,496.479 4181.5,501C 4132.22,510.278 4104.06,539.778 4097,589.5C 4096.5,665.499 4096.33,741.499 4096.5,817.5C 4074.17,817.5 4051.83,817.5 4029.5,817.5C 4029.5,693.5 4029.5,569.5 4029.5,445.5C 4051.83,445.5 4074.17,445.5 4096.5,445.5C 4096.33,460.837 4096.5,476.17 4097,491.5C 4123.87,458.312 4158.71,440.312 4201.5,437.5 Z"/></g>
<g><path style="opacity:0.997" fill="#3d3c3c" d="M 1910.5,439.5 C 1947.47,435.821 1980.47,445.321 2009.5,468C 2034.34,492.137 2047.84,521.637 2050,556.5C 2050.5,643.499 2050.67,730.499 2050.5,817.5C 2007.17,817.5 1963.83,817.5 1920.5,817.5C 1920.97,745.478 1920.47,673.478 1919,601.5C 1911.68,566.187 1890.18,551.354 1854.5,557C 1832.86,563.645 1820.02,578.145 1816,600.5C 1814.86,628.137 1814.36,655.804 1814.5,683.5C 1814.75,728.168 1815.09,772.835 1815.5,817.5C 1771.83,817.5 1728.17,817.5 1684.5,817.5C 1684.5,693.5 1684.5,569.5 1684.5,445.5C 1727.83,445.333 1771.17,445.5 1814.5,446C 1815.33,462.759 1815.83,479.593 1816,496.5C 1839.6,464.289 1871.1,445.289 1910.5,439.5 Z"/></g>
<g><path style="opacity:0.997" fill="#3d3c3c" d="M 2483.5,439.5 C 2545.68,435.108 2600.02,453.274 2646.5,494C 2699.49,548.438 2716.32,612.605 2697,686.5C 2674.87,752.159 2630.71,795.326 2564.5,816C 2503.05,833.173 2444.39,826.506 2388.5,796C 2322.61,753.722 2292.11,693.222 2297,614.5C 2306.87,540.885 2345.37,488.385 2412.5,457C 2435.4,447.524 2459.07,441.691 2483.5,439.5 Z M 2491.5,549.5 C 2531.48,548.392 2558.65,566.392 2573,603.5C 2581.56,632.557 2577.9,659.891 2562,685.5C 2549.96,701.186 2534.13,710.686 2514.5,714C 2470.1,717.733 2440.94,698.567 2427,656.5C 2418.11,621.536 2426.28,591.369 2451.5,566C 2463.43,556.862 2476.77,551.362 2491.5,549.5 Z"/></g>
<g><path style="opacity:0.997" fill="#3d3c3c" d="M 2973.5,439.5 C 3002.46,437.159 3029.8,442.659 3055.5,456C 3084.08,474.287 3101.91,500.12 3109,533.5C 3110.89,542.753 3112.23,552.086 3113,561.5C 3113.5,646.833 3113.67,732.166 3113.5,817.5C 3070.17,817.5 3026.83,817.5 2983.5,817.5C 2983.98,744.806 2983.48,672.139 2982,599.5C 2974.25,565.527 2953.08,551.36 2918.5,557C 2898.52,562.981 2886.02,576.147 2881,596.5C 2880.15,600.469 2879.48,604.469 2879,608.5C 2878.62,678.168 2878.12,747.835 2877.5,817.5C 2834.17,817.5 2790.83,817.5 2747.5,817.5C 2747.5,693.5 2747.5,569.5 2747.5,445.5C 2790.83,445.5 2834.17,445.5 2877.5,445.5C 2877.33,462.503 2877.5,479.503 2878,496.5C 2901.83,464.003 2933.67,445.003 2973.5,439.5 Z"/></g>
<g><path style="opacity:0.994" fill="#3d3c3c" d="M 3781.5,440.5 C 3813.09,438.14 3844.09,441.307 3874.5,450C 3919.78,464.282 3948.28,494.449 3960,540.5C 3962.5,551.034 3964.17,561.7 3965,572.5C 3965.5,653.499 3965.67,734.499 3965.5,815.5C 3943.5,815.5 3921.5,815.5 3899.5,815.5C 3899.67,801.829 3899.5,788.163 3899,774.5C 3861.15,811.454 3815.65,827.621 3762.5,823C 3727.1,820.655 3696.1,807.988 3669.5,785C 3642.56,756.438 3632.06,722.604 3638,683.5C 3643.58,648.927 3661.42,622.76 3691.5,605C 3718.28,590.469 3746.95,582.469 3777.5,581C 3818.75,578.361 3859.25,582.528 3899,593.5C 3898.66,536.161 3869.83,505.661 3812.5,502C 3768.06,500.07 3726.22,509.57 3687,530.5C 3679.77,512.154 3672.94,493.654 3666.5,475C 3684.98,464.609 3704.65,456.609 3725.5,451C 3744.03,445.992 3762.7,442.492 3781.5,440.5 Z M 3793.5,636.5 C 3829.18,636.169 3864.18,640.835 3898.5,650.5C 3906.11,706.815 3883.11,743.982 3829.5,762C 3805.32,768.46 3780.98,769.127 3756.5,764C 3737.47,758.947 3722.3,748.447 3711,732.5C 3703.46,717.939 3701.46,702.606 3705,686.5C 3709.28,672.103 3717.78,660.937 3730.5,653C 3750.34,642.624 3771.34,637.124 3793.5,636.5 Z"/></g>
<g><path style="opacity:0.952" fill="#403c3c" d="M 4891.5,485.5 C 4891.5,492.167 4891.5,498.833 4891.5,505.5C 4883.2,533.166 4864.53,546.333 4835.5,545C 4804.55,537.307 4790.72,517.474 4794,485.5C 4802.58,456.284 4822.08,443.117 4852.5,446C 4873.1,451.767 4886.1,464.934 4891.5,485.5 Z M 4839.5,451.5 C 4868.05,452.388 4883.72,467.054 4886.5,495.5C 4882.62,525.551 4865.62,539.717 4835.5,538C 4815.45,533.417 4803.95,520.917 4801,500.5C 4799.82,478.367 4809.32,462.867 4829.5,454C 4832.99,453.262 4836.32,452.429 4839.5,451.5 Z M 4834.5,477.5 C 4840.26,477.149 4845.93,477.649 4851.5,479C 4856.66,483.237 4856.66,487.57 4851.5,492C 4845.91,493.289 4840.24,493.789 4834.5,493.5C 4834.5,488.167 4834.5,482.833 4834.5,477.5 Z"/></g>
<g><path style="opacity:1" fill="#3d3c3c" d="M 2119.5,445.5 C 2162.83,445.5 2206.17,445.5 2249.5,445.5C 2249.5,569.5 2249.5,693.5 2249.5,817.5C 2206.17,817.5 2162.83,817.5 2119.5,817.5C 2119.5,693.5 2119.5,569.5 2119.5,445.5 Z"/></g>
<g><path style="opacity:0.97" fill="#3e3c3c" d="M 4823.5,467.5 C 4833.89,467.13 4844.22,467.63 4854.5,469C 4864.9,472.452 4868.73,479.618 4866,490.5C 4863.86,494.969 4860.7,498.469 4856.5,501C 4860.48,506.99 4864.48,512.99 4868.5,519C 4864.13,519.828 4859.8,519.661 4855.5,518.5C 4851.96,513.245 4848.29,508.079 4844.5,503C 4841.18,502.502 4837.85,502.335 4834.5,502.5C 4834.5,508.167 4834.5,513.833 4834.5,519.5C 4830.83,519.5 4827.17,519.5 4823.5,519.5C 4823.5,502.167 4823.5,484.833 4823.5,467.5 Z M 4834.5,477.5 C 4834.5,482.833 4834.5,488.167 4834.5,493.5C 4840.24,493.789 4845.91,493.289 4851.5,492C 4856.66,487.57 4856.66,483.237 4851.5,479C 4845.93,477.649 4840.26,477.149 4834.5,477.5 Z"/></g>
</svg>
